<?xml version="1.0" encoding="UTF-8" standalone="no"?>
<!-- Created with Vectornator for iOS (http://vectornator.io/) -->

<svg
   xmlns:vectornator="http://vectornator.io"
   xmlns:dc="http://purl.org/dc/elements/1.1/"
   xmlns:cc="http://creativecommons.org/ns#"
   xmlns:rdf="http://www.w3.org/1999/02/22-rdf-syntax-ns#"
   xmlns:svg="http://www.w3.org/2000/svg"
   xmlns="http://www.w3.org/2000/svg"
   xmlns:sodipodi="http://sodipodi.sourceforge.net/DTD/sodipodi-0.dtd"
   xmlns:inkscape="http://www.inkscape.org/namespaces/inkscape"
   style="fill-rule:evenodd;clip-rule:evenodd;stroke-linecap:round;stroke-linejoin:round;"
   xml:space="preserve"
   version="1.1"
   viewBox="0 0 200 200"
   id="svg24"
   sodipodi:docname="Intro-No.svg"
   inkscape:version="0.92.4 (5da689c313, 2019-01-14)"><sodipodi:namedview
   pagecolor="#ffffff"
   bordercolor="#666666"
   borderopacity="1"
   objecttolerance="10"
   gridtolerance="10"
   guidetolerance="10"
   inkscape:pageopacity="0"
   inkscape:pageshadow="2"
   inkscape:window-width="2560"
   inkscape:window-height="1387"
   id="namedview26"
   showgrid="false"
   inkscape:pagecheckerboard="true"
   inkscape:zoom="1.18"
   inkscape:cx="100"
   inkscape:cy="100"
   inkscape:window-x="-8"
   inkscape:window-y="-8"
   inkscape:window-maximized="1"
   inkscape:current-layer="svg24" />
<metadata
   id="metadata2">
<vectornator:setting
   key="DisplayWhiteBackground"
   value="0" />
<vectornator:setting
   key="RulersVisible"
   value="1" />
<vectornator:setting
   key="SnapToEdges"
   value="0" />
<vectornator:setting
   key="Units"
   value="Pixels" />
<vectornator:setting
   key="DynamicGuides"
   value="0" />
<vectornator:setting
   key="SnapToPoints"
   value="0" />
<vectornator:setting
   key="SnapToGrid"
   value="0" />
<vectornator:setting
   key="SnapToGuides"
   value="1" />
<vectornator:setting
   key="ShowGrid"
   value="0" />
<vectornator:setting
   key="GridSpacing"
   value="45" />
<rdf:RDF><cc:Work
     rdf:about=""><dc:format>image/svg+xml</dc:format><dc:type
       rdf:resource="http://purl.org/dc/dcmitype/StillImage" /><dc:title></dc:title></cc:Work></rdf:RDF></metadata>
<defs
   id="defs4" />
<g
   id="Layer 2"
   vectornator:layerName="Layer 2">
<path
   stroke="#000000"
   stroke-width="2"
   d="M19.861+99.3643C19.861+56.081+55.0598+20.9929+98.4797+20.9929C141.9+20.9929+177.098+56.081+177.098+99.3643C177.098+142.648+141.9+177.736+98.4797+177.736C55.0598+177.736+19.861+142.648+19.861+99.3643Z"
   fill="#ffffff"
   stroke-linecap="round"
   opacity="1"
   stroke-linejoin="round"
   id="path6" />
<path
   stroke="#000000"
   stroke-width="2"
   d="M148.403+25.9281C126.41+12.4421+105.549+9.64058+83.9866+13.3606C64.143+16.7841+44.9605+24.1266+30.4428+41.5359C-1.38725+79.7057+6.07973+129.606+39.0695+164.672C50.31+176.619+76.3168+188.024+103.307+187.912C127.909+187.81+153.427+177.691+167.372+158.561C177.409+144.791+185.304+131.581+187.398+112.679C191.049+79.7085+176.123+42.9256+148.403+25.9281ZM145.083+45.6892C175.518+70.4633+179.053+116.275+154.134+147.119C154.134+147.119+131.474+120.932+104.082+94.5224C76.6898+68.113+52.5333+46.2446+52.5333+46.2446C85.91+22.9148+114.484+20.7817+145.083+45.6892ZM37.8249+58.4651C37.8249+58.4651+69.4437+78.1957+96.5381+104.318C123.632+130.44+140.105+158.006+140.105+158.006C110.846+180.146+86.9936+176.443+56.267+154.673C27.4159+134.232+17.2898+89.0162+37.8249+58.4651Z"
   fill="#f73333"
   stroke-linecap="round"
   opacity="1"
   stroke-linejoin="round"
   id="path8" />
</g>

</svg>